<?xml version="1.0" standalone="no"?>
<!DOCTYPE svg PUBLIC "-//W3C//DTD SVG 20010904//EN"
 "http://www.w3.org/TR/2001/REC-SVG-20010904/DTD/svg10.dtd">
<svg version="1.0" xmlns="http://www.w3.org/2000/svg"
 width="358.000000pt" height="285.000000pt" viewBox="0 0 358.000000 285.000000"
 preserveAspectRatio="xMidYMid meet">

<g transform="translate(0.000000,285.000000) scale(0.100000,-0.100000)"
fill="#000000" stroke="none">
<path d="M0 1425 l0 -1425 1790 0 1790 0 0 1425 0 1425 -1790 0 -1790 0 0
-1425z m2230 1007 c0 -4 -42 -165 -94 -357 -246 -913 -267 -980 -338 -1061
-46 -52 -110 -80 -213 -94 -118 -16 -1248 -26 -1358 -12 -177 23 -229 102
-192 290 23 118 110 437 145 533 61 168 142 241 300 270 72 13 940 26 940 14
0 -4 -16 -65 -35 -136 -19 -71 -35 -132 -35 -134 0 -3 -109 -6 -242 -6 -134
-1 -256 -4 -273 -8 -42 -8 -55 -40 -116 -280 -56 -220 -57 -249 -9 -262 45
-13 542 -9 580 4 27 9 40 23 57 59 28 58 118 372 184 645 28 114 66 264 84
333 18 69 39 144 45 168 l11 42 279 0 c154 0 280 -3 280 -8z m590 -415 c0 -12
-245 -912 -274 -1007 -65 -215 -122 -331 -208 -426 -98 -107 -222 -167 -393
-190 -58 -8 -254 -17 -464 -20 -312 -6 -364 -5 -359 7 3 8 27 96 53 197 l48
182 167 0 c180 0 306 16 383 49 89 38 162 135 222 296 33 89 186 611 230 785
9 36 21 80 26 98 l11 32 279 0 c153 0 279 -2 279 -3z m696 -14 c-12 -40 -296
-1095 -296 -1099 0 -2 -126 -4 -280 -4 -154 0 -280 3 -280 7 0 8 277 1033 291
1081 l11 32 279 0 c262 0 280 -1 275 -17z"/>
</g>
</svg>
